<?xml version="1.0" encoding="UTF-8" standalone="no"?>
<!-- Created with Inkscape (http://www.inkscape.org/) -->

<svg
   xmlns:dc="http://purl.org/dc/elements/1.1/"
   xmlns:cc="http://creativecommons.org/ns#"
   xmlns:rdf="http://www.w3.org/1999/02/22-rdf-syntax-ns#"
   xmlns:svg="http://www.w3.org/2000/svg"
   xmlns="http://www.w3.org/2000/svg"
   xmlns:sodipodi="http://sodipodi.sourceforge.net/DTD/sodipodi-0.dtd"
   xmlns:inkscape="http://www.inkscape.org/namespaces/inkscape"
   id="svg2"
   version="1.1"
   inkscape:version="0.91 r13725"
   xml:space="preserve"
   width="1400"
   height="362.5"
   viewBox="0 0 1400 362.5"
   sodipodi:docname="logo_symplifica_white.svg"><metadata
     id="metadata8"><rdf:RDF><cc:Work
         rdf:about=""><dc:format>image/svg+xml</dc:format><dc:type
           rdf:resource="http://purl.org/dc/dcmitype/StillImage" /><dc:title></dc:title></cc:Work></rdf:RDF></metadata><defs
     id="defs6"><clipPath
       clipPathUnits="userSpaceOnUse"
       id="clipPath16"><path
         d="M 0,290 1120,290 1120,0 0,0 0,290 Z"
         id="path18"
         inkscape:connector-curvature="0" /></clipPath></defs><sodipodi:namedview
     pagecolor="#ffffff"
     bordercolor="#666666"
     borderopacity="1"
     objecttolerance="10"
     gridtolerance="10"
     guidetolerance="10"
     inkscape:pageopacity="0"
     inkscape:pageshadow="2"
     inkscape:window-width="640"
     inkscape:window-height="480"
     id="namedview4"
     showgrid="false"
     inkscape:zoom="0.325"
     inkscape:cx="700"
     inkscape:cy="181.25"
     inkscape:window-x="0"
     inkscape:window-y="30"
     inkscape:window-maximized="0"
     inkscape:current-layer="g10" /><g
     id="g10"
     inkscape:groupmode="layer"
     inkscape:label="logo_symplifica"
     transform="matrix(1.25,0,0,-1.25,0,362.5)"><g
       id="g12"
       style="fill:#ffffff"><g
         id="g14"
         clip-path="url(#clipPath16)"
         style="fill:#ffffff"><g
           id="g20"
           transform="translate(413.8596,184.8565)"
           style="fill:#ffffff"><path
             d="m 0,0 c -5.91,2.626 -12.477,3.722 -18.824,3.722 -3.721,0 -7.442,-0.439 -10.945,-1.534 C -36.992,0 -44.652,-5.472 -49.906,-11.163 -55.159,-5.472 -62.82,0 -70.043,2.188 -79.236,5.034 -91.057,3.94 -99.813,0 c -23.201,-10.288 -24.953,-31.082 -24.953,-42.026 l 0,-63.697 35.022,0 0,63.04 c 0,2.626 0,14.008 11.164,14.008 10.725,0 11.163,-10.724 11.163,-16.197 l 0,-60.851 35.022,0 0,60.851 c 0,5.91 0.438,16.197 11.163,16.197 5.472,0 11.164,-3.283 11.164,-14.008 l 0,-63.04 35.021,0 0,63.697 C 24.953,-31.082 23.201,-10.288 0,0"
             style="fill:#ffffff;fill-opacity:1;fill-rule:nonzero;stroke:none"
             id="path22"
             inkscape:connector-curvature="0" /></g><g
           id="g24"
           transform="translate(514.2267,107.1514)"
           style="fill:#ffffff"><path
             d="m 0,0 c -15.104,0 -26.049,10.288 -26.049,26.704 0,16.416 10.945,26.705 26.049,26.705 15.102,0 26.047,-10.289 26.047,-26.705 C 26.047,10.288 15.102,0 0,0 m 6.566,84.491 c -14.666,0 -25.392,-5.035 -32.615,-13.353 l 0,10.289 -32.832,0 0,-153.222 32.832,0 0,54.066 c 7.223,-8.319 17.949,-13.353 32.615,-13.353 28.674,0 52.313,25.172 52.313,57.786 0,32.614 -23.639,57.787 -52.313,57.787"
             style="fill:#ffffff;fill-opacity:1;fill-rule:nonzero;stroke:none"
             id="path26"
             inkscape:connector-curvature="0" /></g><path
           d="m 586.235,79.134 32.832,0 0,159.788 -32.832,0 0,-159.788 z"
           style="fill:#ffffff;fill-opacity:1;fill-rule:nonzero;stroke:none"
           id="path28"
           inkscape:connector-curvature="0" /><g
           id="g30"
           transform="translate(121.7619,170.629)"
           style="fill:#ffffff"><path
             d="m 0,0 c -23.859,7.223 -27.58,12.039 -27.58,19.043 0,6.129 5.472,11.602 16.416,11.602 14.009,0 21.232,-6.787 26.485,-17.731 l 29.55,17.292 c -11.163,22.546 -30.863,34.585 -56.035,34.585 -26.485,0 -51.439,-17.074 -51.439,-46.623 0,-29.332 22.328,-40.275 45.091,-46.623 22.984,-6.348 31.739,-10.069 31.739,-19.482 0,-5.91 -4.159,-12.476 -20.794,-12.476 -17.292,0 -26.704,8.536 -32.177,21.231 l -30.206,-17.51 c 8.536,-22.545 29.112,-37.868 61.288,-37.868 33.271,0 56.911,17.511 56.911,47.062 C 49.249,-15.104 23.201,-7.004 0,0"
             style="fill:#ffffff;fill-opacity:1;fill-rule:nonzero;stroke:none"
             id="path32"
             inkscape:connector-curvature="0" /></g><g
           id="g34"
           transform="translate(225.9494,121.5977)"
           style="fill:#ffffff"><path
             d="m 0,0 -24.297,66.98 -36.115,0 43.558,-104.41 c -4.816,-13.351 -12.039,-18.167 -27.361,-18.167 l 0,-30.644 c 30.645,-1.532 50.125,12.258 62.383,47.06 L 55.598,66.98 20.576,66.98 0,0 Z"
             style="fill:#ffffff;fill-opacity:1;fill-rule:nonzero;stroke:none"
             id="path36"
             inkscape:connector-curvature="0" /></g><g
           id="g38"
           transform="translate(1003.1974,145.5655)"
           style="fill:#ffffff"><path
             d="m 0,0 c -5.76,-5.871 -11.666,-11.781 -17.377,-17.497 -2.32,-2.322 -4.642,-4.645 -6.959,-6.971 l -3.606,-3.618 c -2.178,-2.184 -4.356,-4.367 -6.531,-6.555 -2.127,-2.137 -4.412,-3.222 -6.793,-3.222 -2.398,0 -4.71,1.101 -6.871,3.274 -8.842,8.889 -15.627,15.678 -21.999,22.015 -3.841,3.819 -4.333,8.401 -1.284,11.959 1.996,2.329 4.14,2.818 5.586,2.818 2.272,0 4.523,-1.146 6.881,-3.504 4.668,-4.668 9.281,-9.303 14.166,-14.213 l 3.672,-3.688 c 2.011,2.021 4.008,4.03 5.994,6.027 8.217,8.266 15.977,16.071 23.909,23.989 0.13,0.129 0.259,0.261 0.39,0.394 1.367,1.393 3.238,3.301 6.126,3.301 1.347,0 2.699,-0.44 4.018,-1.307 C 1.738,11.614 3.085,9.676 3.324,7.441 3.588,4.982 2.5,2.548 0,0 m -8.973,43.013 0,-10.289 c -7.224,8.318 -17.949,13.353 -32.615,13.353 -28.674,0 -52.314,-25.173 -52.314,-57.787 0,-32.614 23.64,-57.786 52.314,-57.786 14.666,0 25.391,5.034 32.615,13.352 l 0,-10.288 32.832,0 0,109.445 -32.832,0 z"
             style="fill:#ffffff;fill-opacity:1;fill-rule:nonzero;stroke:none"
             id="path40"
             inkscape:connector-curvature="0" /></g><g
           id="g42"
           transform="translate(772.2775,237.6085)"
           style="fill:#ffffff"><path
             d="m 0,0 c -10.725,0 -19.699,-8.975 -19.699,-19.7 0,-10.725 8.974,-19.699 19.699,-19.699 10.727,0 19.701,8.974 19.701,19.699 C 19.701,-8.975 10.727,0 0,0"
             style="fill:#ffffff;fill-opacity:1;fill-rule:nonzero;stroke:none"
             id="path44"
             inkscape:connector-curvature="0" /></g><path
           d="m 637.67,79.134 32.832,0 0,109.444 -32.832,0 0,-109.444 z"
           style="fill:#ffffff;fill-opacity:1;fill-rule:nonzero;stroke:none"
           id="path46"
           inkscape:connector-curvature="0" /><g
           id="g48"
           transform="translate(859.3928,108.4649)"
           style="fill:#ffffff"><path
             d="m 0,0 c -14.227,0 -24.734,10.287 -24.734,25.391 0,15.103 10.507,25.39 24.734,25.39 9.631,0 17.512,-4.595 21.232,-12.258 L 49.906,55.16 C 40.494,72.014 21.67,83.178 0.437,83.178 c -33.269,0 -58.003,-25.173 -58.003,-57.787 0,-32.615 24.734,-57.787 58.003,-57.787 21.452,0 40.057,11.164 49.469,28.237 L 21.232,12.258 C 17.73,4.597 9.631,0 0,0"
             style="fill:#ffffff;fill-opacity:1;fill-rule:nonzero;stroke:none"
             id="path50"
             inkscape:connector-curvature="0" /></g><path
           d="m 755.862,79.134 32.834,0 0,109.444 -32.834,0 0,-109.444 z"
           style="fill:#ffffff;fill-opacity:1;fill-rule:nonzero;stroke:none"
           id="path52"
           inkscape:connector-curvature="0" /><g
           id="g54"
           transform="translate(654.0861,235.5958)"
           style="fill:#ffffff"><path
             d="m 0,0 c -10.727,0 -19.699,-8.975 -19.699,-19.7 0,-10.725 8.972,-19.699 19.699,-19.699 10.725,0 19.699,8.974 19.699,19.699 C 19.699,-8.975 10.725,0 0,0"
             style="fill:#ffffff;fill-opacity:1;fill-rule:nonzero;stroke:none"
             id="path56"
             inkscape:connector-curvature="0" /></g><g
           id="g58"
           transform="translate(696.1096,188.5782)"
           style="fill:#ffffff"><path
             d="m 0,0 -14.664,0 0,-31.521 14.664,0 0,-77.923 32.834,0 0,77.923 20.355,0 0,31.521 -20.355,0 c 0,12.695 8.1,16.416 20.355,15.321 l 0,31.521 C 16.855,49.03 0,30.644 0,0"
             style="fill:#ffffff;fill-opacity:1;fill-rule:nonzero;stroke:none"
             id="path60"
             inkscape:connector-curvature="0" /></g></g></g></g></svg>